<svg xmlns="http://www.w3.org/2000/svg" xml:space="preserve" width="2000" height="1500" data-id="lg_ypDHQIQExz3nEvkSzt" data-version="1" viewBox="0 0 2000 1500"><path fill="#fff" stroke="transparent" d="M0 0h2000v1500H0z"/><g data-padding="20"><g transform="translate(-1623.675 -1232.014)scale(2.55653)"><rect width="560" height="97.18" x="343.079" y="329.387" fill="none" rx="0" ry="0" transform="translate(400 386.06)"/><path fill="#007099" d="M749.119 778.997q0-3.23 1-7.45 1.01-4.22 2.96-8.71 1.96-4.5 4.75-9.03 2.79-4.54 6.36-8.73 3.57-4.2 7.85-7.86 4.29-3.65 9.16-6.38 10.45-5.8 21.71-5.8 10.41 0 16.63 4.71 6.59 5 6.59 13.77 0 8.36-5.5 15.54-5.08 6.55-13.02 10.12 2.23 5.37 3.32 7.05 2.22 3.36 4.3 3.36t4.43-1.05 4.5-2.68q4.41-3.32 7.05-7.31 1.89-.13 1.89 1.55 0 1.56-2.14 5.27-2.14 3.72-4.01 6.15-1.87 2.44-4.14 4.64-2.27 2.21-4.87 3.89-5.71 3.61-11.67 3.61-12.47 0-12.47-17.05 0-2.35.16-4.7-6.17-.55-8.77-5.92-.93-1.85-1.18-4.37-10.16 19.02-17.17 25.83-4.66 4.53-8.44 4.53-4.16 0-6.72-3.44-2.56-3.45-2.56-9.54m12.8-6.08q0 3.78 1.43 3.78 2.65 0 17.22-22.01 6-9.07 11.38-18.22 1.34-2.31 4.49-.63.71.37 1.05.63-2.35 3.65-7.73 14.06 3.41-2.22 5.02-2.22 1.62 0 2.82.88 1.19.88 2.28 2.39 1.85 2.61 3.95 7.81 5.71-2.39 9.66-7.55 4.07-5.34 4.07-10.67 0-11.72-15.95-11.72-11.8 0-21.17 7.39-7.68 6.05-12.81 16.26-4.19 8.23-5.41 16.2-.3 2.06-.3 3.62m33.39-16.38q0-3.61-1.51-3.61-1.52 0-2.1.9-.59.9-.59 1.51t.08 1.37q.09.75 1.05 2.01.97 1.26 2.82 1.81.25-2.52.25-3.99"/><path fill="#007099" d="m835.779 791.307-.21-.04-.84.04q-6.63 0-10.12-3.28-3.27-3.06-3.27-8.31 0-7.22 5.75-13.82 5.59-6.38 13.56-8.94-.25-1.89 1.39-3.11 1.18-.88 3.88-.88 2.71 0 5.23.5 2.52.51 5.08 2.23 5.55 3.65 5.55 9.83 0 6.67-3.32 12.68 7.22-1.56 12.64-9.66 1.89-.13 1.89 1.55 0 .67-.42 1.64-5.71 13.56-22.85 17.97-6.13 1.6-13.94 1.6m-.92-18.44q0 4.88 4.07 4.88 3.45 0 6.93-4.16 3.65-4.33 3.65-8.78 0-4.53-4.36-6-7.52 2.1-9.62 9.4-.67 2.23-.67 4.66"/><path fill="#007099" d="M887.179 744.547q-1.64.9-3.55 1.41-1.91.5-3.38.5t-2.58-.36q-1.12-.35-2-1.02-1.8-1.43-1.8-3.51t.67-3.51 1.97-2.43q2.73-2.19 7.73-2.19 4.78 0 6.3 3.87.46 1.09.46 2.45 0 1.37-1.09 2.63-1.1 1.26-2.73 2.16m-20.03 46.13q-1.35 5.12-2.44 9.09t-2.41 6.7q-1.33 2.73-3.15 4.15-1.83 1.43-4.1 1.43-2.26 0-3.65-.5-1.39-.51-2.48-1.26-2.18-1.55-2.94-3.49 3.28-2.6 16.76-29.43 7.6-15.16 11.04-21.25 1.43-2.56 3.7-2.56 1.3 0 2.98.88-6.17 12.22-10.33 25.78 8.19-1.43 15.37-7.64 2.22-1.93 3.61-4.03 1.89-.13 1.89 1.55 0 .67-1.03 3.15t-3.55 5.71q-2.52 3.24-5.63 5.63-6.13 4.74-13.64 6.09"/><path fill="#007099" d="M918.409 754.687q1.81-2.06 4.16-2.06 1.39 0 2.35.8-4.15 6.64-8.56 19.74l-2.44 7.22q7.31-1.01 14.11-7.64 2.02-2.02 3.44-4.2 1.89-.13 1.89 1.55 0 .67-1 3.07-1.01 2.39-3.43 5.5-2.41 3.11-5.39 5.5-5.88 4.66-13.19 6.26-3.95 10.16-8.61 15.32-5.67 6.3-13.56 6.3-5.63 0-9.87-3.23-4.53-3.49-4.53-8.53 0-2.09 2.01-4.19 2.06-2.15 4.33-2.65 1.8 2.31 7.51 3.78 1.47.38 2.84.38 1.36 0 2.98-.99t3.21-2.71q2.94-3.23 6.22-9.15-6.05 6.3-13.36 6.3-4.45 0-7.34-3.15-2.94-3.19-2.94-8.19 0-6.43 5.03-12.47 4.88-5.88 12.77-9.58 8.19-3.82 16.92-3.82 2.98 0 4.45.84m-25.65 18.18q0 4.88 4.07 4.88 5.8 0 15.24-13.32 1.43-1.97 2.69-3.82.5-.92 1.6-2.9-10.46.26-17.14 4.88-6.46 4.41-6.46 10.28"/><path fill="#007099" d="M947.129 784.337q-5.75 6.72-14.02 6.72-5.25 0-8.4-3.15-3.11-3.11-3.11-8.19 0-6.43 5.04-12.47 4.87-5.88 12.77-9.58 8.18-3.82 16.92-3.82 3.32 0 4.74 1.05 1.14-1.34 2.04-1.57t1.41-.23q1.59 0 3.4.46-.17.54-.72 1.87-.54 1.32-1.21 3.12-.68 1.81-1.43 3.95-2.73 7.64-2.73 11.44 0 3.81 2.39 3.81 3.11 0 6.93-2.82 3.4-2.56 5.96-6.38 1.89-.13 1.89 1.55 0 1.43-1.74 4.37t-3.38 5.08-3.65 4.2q-2.02 2.06-4.29 3.7-5.08 3.61-9.91 3.61-6.13 0-8.23-3.7-.67-1.13-.67-1.99Zm-12.01-11.47q0 4.88 4.08 4.88 4.49 0 10.58-7.27 3.23-3.86 5.65-7.39 2.41-3.53 3.67-5.38-10.5.09-17.43 4.79-6.55 4.45-6.55 10.37"/><path fill="#007099" d="M988.109 765.857q-5.04-.25-8.56-1.05-4.33 7.52-8.49 13.4-.54.88-2.47.46-3.45-.76-3.95-1.76 7.47-5.25 10.5-13.48-4.41-2.02-4.41-5.72 0-2.26 2.98-5.79 2.81-3.44 4.16-3.44 4.11 0 6.25 2.1.84.79.84 2.12 0 1.32-1.43 4.43 6.47 3.15 16.3 3.69-.3 2.9-2.44 4.71-.59.54-1.17.54-2.99 2.69-4.2 5.84-.38 1.01-.38 1.93 0 3.91 4.66 3.91 3.15 0 6.97-2.82 3.4-2.56 5.96-6.38 1.89-.13 1.89 1.55 0 1.43-1.74 4.37t-3.38 5.08-3.65 4.2q-2.02 2.06-4.29 3.7-5.08 3.61-9.95 3.61-8.27 0-11.08-5.13-.97-1.72-.97-4.01t.94-4.51q.95-2.23 2.59-4.33 3.36-4.36 8.52-7.22m107.86-40.61q5.84.97 5.84 3.7 0 4.66-16.88 15.5-6.81 4.36-14.7 8.52 1.51 1.51 2.71 4.74 1.19 3.24 1.89 5.38.69 2.14 1.53 4.24t1.85 3.99 2.35 3.36q2.94 3.15 6.97 3.15 3.15 0 7.31-2.86 4.03-2.77 6.46-6.42 1.89-.13 1.89 1.55 0 1.93-2.37 5.67t-4.41 6.03-4.41 4.22-4.97 3.36q-5.63 2.98-10.4 2.98-4.76 0-7.56-1.09-2.79-1.1-4.68-2.96-1.89-1.87-2.98-4.33t-1.72-5.16q-.63-2.71-.92-5.55-.3-2.83-.55-5.39-.67-6.26-1.85-8.4-2.1.84-3.65 1.26-1.47 4.11-2.88 8.06-1.4 3.95-2.75 7.45-1.34 3.51-2.62 6.49t-2.5 5.13q-2.56 4.53-4.58 4.53-4.53 0-9.99-1.93-1.47-.51-2.1-1.01 2.69-2.39 6.72-9.36t6.8-12.1q2.77-5.12 5.58-10.41 2.82-5.29 5.57-10.42 2.75-5.12 5.14-9.36 5.42-9.53 7.77-11.67 1.34-1.22 3.82 0 .67.33 1.26.84-4.79 6.51-11.46 23.55 13.98-3.69 26.16-11.46 7.39-4.7 11-9.41 1.81-2.31 2.31-4.41"/><path fill="#007099" d="M1108.109 774.537q2.44 4.37 11.05 4.37 5.37 0 10.14-2.62 4.76-2.63 8.16-7.75 1.89-.13 1.89 1.55 0 1.89-2.24 5.44-2.25 3.55-4.2 5.73-1.95 2.19-4.37 4.05-2.41 1.87-5.19 3.22-6 2.94-12.63 2.94-13.36 0-17.35-7.39-1.43-2.69-1.43-6.16 0-3.46 1.2-6.36t3.3-5.52 4.99-4.85q2.9-2.23 6.3-3.82 7.23-3.49 14.74-3.49 5.42 0 7.44 3.4.71 1.18.71 3.13 0 1.96-.99 3.85-.98 1.89-2.66 3.42t-3.91 2.69q-2.22 1.15-4.74 1.99-4.46 1.51-10.21 2.18m-.59-3.9q5.38-.63 9.24-2.98 4.08-2.52 4.08-5.9t-3.11-3.38q-4.03 0-7.01 3.86-2.86 3.7-3.2 8.4"/><path fill="#007099" d="M1141.909 789.457q0 1.68-2.81 1.68-6.97 0-9.91-5.54-1.09-1.98-1.09-4.71 0-2.72.79-5.43.8-2.71 2.14-5.36 1.35-2.64 3.11-5.12 1.77-2.48 3.74-4.58 4.16-4.45 7.89-6.25 1.01-.47 1.83-.47t1.37.05q1.38.12 2.05 1.05-2.56 5.41-4.2 9.91 7.48-7.35 17.39-10.04 3.23-.88 5.65-.88 2.41 0 2.79.9t.38 1.66q0 .75-.21 2.04-.21 1.28-1.1 3.54-.88 2.27-1.8 4.58-2.35 5.88-2.35 8.02 0 3.7 2.64 3.7 4.54 0 10-5.97 1.59-1.72 2.89-3.69 1.89-.13 1.89 1.55 0 1.35-1.72 4.43-1.72 3.09-3.29 5.34-1.58 2.24-3.55 4.38-1.98 2.15-4.33 3.87-5.12 3.73-9.99 3.73t-7.39-2.56-2.52-7.47q0-7.27 7.56-17.39 2.31-3.06 2.01-3.06-3.19 0-8.98 4.03-5.76 4.03-8.78 8.57-1.93 7.85-2.1 15.49"/><path fill="#007099" d="M1216.899 777.747q3.11 0 6.93-2.82 3.4-2.56 5.97-6.38 1.93-.17 1.84 1.64-.04 1.42-1.74 4.32t-3.34 5.04-3.65 4.2q-2.02 2.06-4.28 3.7-5.09 3.61-9.91 3.61-6.18 0-8.24-3.7-.71-1.26-.67-3.02-3.57 4.32-10.16 6.04-2.22.59-4.79.59-2.56 0-4.68-.82t-3.63-2.28q-3.11-3.07-3.11-8.19 0-5.8 4.92-11.89 4.82-6.04 12.38-9.91 8.07-4.07 16.46-4.07 3.74 0 3.32 3.32-9.66 0-16.84 5.2-3.15 2.31-4.93 5.09-1.79 2.77-1.79 5.37 0 4.87 4.12 4.87 5.92 0 11.92-7.39 2.1-2.6 4.9-7.29 2.79-4.68 4.57-7.64 1.79-2.96 3.66-6.04 1.87-3.09 3.59-5.9 4.24-6.93 5.25-8.32 1.51-2.1 3.57-2.1 2.39 0 3.48 1.72-4.62 7.27-8.61 15.41-3.99 8.15-5.54 11.89-3.53 8.48-3.53 12.11 0 3.64 2.56 3.64"/><path fill="#007099" d="M1240.789 765.857q-5.04-.25-8.56-1.05-4.33 7.52-8.49 13.4-.54.88-2.47.46-3.45-.76-3.95-1.76 7.47-5.25 10.5-13.48-4.41-2.02-4.41-5.72 0-2.26 2.98-5.79 2.81-3.44 4.16-3.44 4.11 0 6.25 2.1.84.79.84 2.12 0 1.32-1.42 4.43 6.46 3.15 16.29 3.69-.3 2.9-2.44 4.71-.58.54-1.17.54-2.98 2.69-4.2 5.84-.38 1.01-.38 1.93 0 3.91 4.66 3.91 3.15 0 6.97-2.82 3.4-2.56 5.96-6.38 1.89-.13 1.89 1.55 0 1.43-1.74 4.37t-3.38 5.08-3.65 4.2q-2.02 2.06-4.29 3.7-5.08 3.61-9.95 3.61-8.27 0-11.08-5.13-.97-1.72-.97-4.01t.95-4.51q.94-2.23 2.58-4.33 3.36-4.36 8.52-7.22"/><path fill="#007099" d="M1277.569 784.337q-5.75 6.72-14.02 6.72-5.25 0-8.4-3.15-3.11-3.11-3.11-8.19 0-6.43 5.04-12.47 4.87-5.88 12.77-9.58 8.19-3.82 16.92-3.82 3.32 0 4.74 1.05 1.14-1.34 2.04-1.57t1.41-.23q1.59 0 3.4.46-.17.54-.71 1.87-.55 1.32-1.22 3.12-.67 1.81-1.43 3.95-2.73 7.64-2.73 11.44 0 3.81 2.39 3.81 3.11 0 6.93-2.82 3.4-2.56 5.97-6.38 1.89-.13 1.89 1.55 0 1.43-1.75 4.37-1.74 2.94-3.38 5.08t-3.65 4.2q-2.02 2.06-4.28 3.7-5.09 3.61-9.91 3.61-6.14 0-8.23-3.7-.68-1.13-.68-1.99Zm-12.01-11.47q0 4.88 4.08 4.88 4.49 0 10.58-7.27 3.23-3.86 5.65-7.39 2.41-3.53 3.67-5.38-10.5.09-17.43 4.79-6.55 4.45-6.55 10.37"/><rect width="230.812" height="21.47" x="507.673" y="367.242" fill="none" rx="0" ry="0" transform="translate(400 446.39)"/><path fill="#0074d9" d="M923.389 815.797q1.29.21 1.29.81 0 1.03-3.73 3.43-1.5.96-3.25 1.88.34.33.6 1.05.27.71.42 1.19.15.47.34.93.18.47.41.88.22.42.52.75.65.69 1.54.69.69 0 1.61-.63.89-.61 1.43-1.42.42-.03.42.34 0 .43-.53 1.26-.52.82-.97 1.33-.45.5-.98.93-.52.43-1.1.74-1.24.66-2.29.66t-1.67-.24-1.04-.65q-.41-.42-.65-.96-.25-.54-.38-1.14-.14-.6-.21-1.22-.06-.63-.12-1.2-.15-1.38-.41-1.85-.46.18-.8.28-.33.91-.64 1.78t-.61 1.64q-.3.78-.58 1.44t-.55 1.13q-.57 1-1.01 1-1 0-2.21-.43-.32-.11-.46-.22.59-.53 1.48-2.07t1.5-2.67q.62-1.13 1.24-2.3t1.23-2.3 1.13-2.07q1.2-2.11 1.72-2.58.3-.27.84 0 .15.08.28.19-1.05 1.44-2.53 5.2 3.09-.81 5.78-2.53 1.63-1.04 2.43-2.08.4-.51.51-.97"/><path fill="#0074d9" d="M930.319 828.847q-1.27 1.48-3.1 1.48-1.16 0-1.86-.69-.68-.69-.68-1.81 0-1.42 1.11-2.76 1.08-1.29 2.82-2.11 1.81-.85 3.74-.85.73 0 1.05.24.25-.3.45-.35t.31-.05q.35 0 .75.1-.04.12-.16.41t-.27.69-.31.88q-.61 1.68-.61 2.52t.53.84q.69 0 1.53-.62.76-.56 1.32-1.41.42-.03.42.34 0 .32-.39.97-.38.65-.74 1.12-.36.48-.81.93t-.95.82q-1.12.79-2.19.79-1.35 0-1.81-.81-.15-.25-.15-.44Zm-2.66-2.53q0 1.07.9 1.07 1 0 2.34-1.6.72-.86 1.25-1.63l.81-1.19q-2.32.02-3.85 1.06-1.45.98-1.45 2.29m12.72 4.02q-2.96 0-2.96-2.51 0-1.75 2.33-4.86-.23-.08-.43-.13-.19-.06-.31-.1t-.15-.13q-.03-.1-.02-.22.04-.28.13-.44l1.4.23q1.64-2 2.83-2.74.36-.22.51-.22t.27.04q.11.04.23.11.26.14.41.32-1.25 1.23-2.35 2.81 2.13.38 2.6.4-.25 1-.57 1-.8 0-2.63-.44-.92 1.53-.92 2.54 0 1.39 1.88 1.39 2.09 0 3.45-2.03.41-.03.41.34 0 .33-.39.97-.39.65-.77 1.12-.39.48-.9.93-.51.46-1.14.83-1.35.79-2.91.79"/><path fill="#0074d9" d="M948.329 830.327q-2.02 0-2.02-2.31 0-1.95 2.16-5.01 1.9-2.68 4.12-4.49 1.4-1.14 2.07-1.14.49 0 .87.46.41.48.41.99 0 .5-.21.9-.22.41-.59.82-.36.4-.86.8t-1.05.76q-1.15.74-2.26 1.11-.4.88-.79 1.96 1.88-1.69 4.37-2.36.8-.21 1.35-.21t.66.19.04.5q-.07.32-.27.72l-.39.82q-.51 1.11-.51 1.58 0 .97.62.97.68 0 1.53-.62.75-.56 1.32-1.41.41-.03.41.34 0 .3-.38.97-.39.66-.76 1.14t-.83.95q-.47.47-1 .83-1.18.83-2.28.83-1.09 0-1.55-.56t-.46-1.61q0-1.35 1.62-3.37.5-.62.44-.62-.74 0-2.26.93-1.6.98-2.26 1.93-.38 1.49-.45 2.84 0 .37-.81.37m3.16-8.19q1.2-.54 2.06-1.31.86-.78.86-1.34 0-.28-.1-.52-.11-.23-.28-.23t-.44.25-.6.69q-.71.93-1.5 2.46m10.69 7.82q0 .37-.63.37-.9 0-1.59-.55-.84-.67-.84-1.85 0-1.58 1.34-3.4 1.23-1.7 2.57-2.35.22-.1.4-.1t.31.01q.3.02.45.23-.56 1.15-.97 2.32 1.11-1.03 2.71-1.77 1.67-.77 3.02-.77.61 0 .61.74 0 .51-.26 1.34 1.55-1.42 3.42-1.92.64-.16 1.15-.16t.69.14q.19.14.22.39.02.25-.07.57-.1.33-.27.71-.17.37-.37.76t-.38.75q-.42.87-.42 1.28 0 .76.83.76.98 0 1.93-1.33.28-.38.54-.77.24-.02.33.09.08.12.08.25t-.11.42q-.12.29-.35.74-.22.46-.54.94-.31.48-.72.95t-.92.84q-1.14.81-2.52.81-1.47 0-1.98-1.07-.17-.34-.17-.84t.2-1.07q.2-.56.49-1.09.29-.52.61-.98l.56-.79q.24-.33.34-.53.1-.19-.05-.19-.64 0-1.66.8-.99.76-1.65 1.72-.95 2.52-.95 3.35 0 .17.01.29.02.12-.05.19-.06.07-.18.11-.44.17-1.04.04t-.92-.36q-.74-.52-.74-1.7 0-1.6 1.74-3.83.52-.67.46-.67-.71 0-2.11.9-1.46.93-2.1 1.9-.42 1.67-.45 3.38"/><path fill="#0074d9" d="M982.319 828.847q-1.27 1.48-3.09 1.48-1.16 0-1.86-.69-.69-.69-.69-1.81 0-1.42 1.12-2.76 1.07-1.29 2.82-2.11 1.81-.85 3.74-.85.73 0 1.04.24.25-.3.45-.35t.31-.05q.36 0 .76.1-.04.12-.16.41t-.27.69-.32.88q-.6 1.68-.6 2.52t.53.84q.69 0 1.53-.62.75-.56 1.32-1.41.42-.03.42.34 0 .32-.39.97-.38.65-.75 1.12-.36.48-.8.93-.45.45-.95.82-1.12.79-2.19.79-1.35 0-1.82-.81-.15-.25-.15-.44Zm-2.65-2.53q0 1.07.9 1.07.99 0 2.34-1.6.71-.86 1.25-1.63l.81-1.19q-2.32.02-3.85 1.06-1.45.98-1.45 2.29m12.57 3.67q0 .37-.62.37-1.54 0-2.19-1.22-.24-.44-.24-1.04t.17-1.2q.18-.6.48-1.19.29-.58.68-1.13.39-.54.83-1.01.92-.98 1.74-1.38.23-.1.41-.1t.3.01q.3.02.45.23-.56 1.2-.93 2.19 1.66-1.63 3.85-2.22.71-.19 1.24-.19.54 0 .62.2.08.19.08.36t-.04.45q-.05.28-.24.79-.2.5-.4 1.01-.52 1.3-.52 1.77 0 .82.58.82 1 0 2.21-1.32.35-.38.64-.82.42-.03.42.34 0 .3-.38.98-.38.69-.73 1.18-.35.5-.78.97-.44.47-.96.85-1.13.83-2.21.83-1.07 0-1.63-.57-.56-.56-.56-1.65 0-1.6 1.67-3.84.51-.67.45-.67-.71 0-1.99.89-1.27.89-1.94 1.89-.42 1.73-.46 3.42m18.87-2.6q.68 0 1.53-.62.75-.56 1.31-1.41.43-.04.41.36-.01.32-.38.96-.38.64-.74 1.11-.36.48-.81.93-.44.45-.94.82-1.13.79-2.19.79-1.37 0-1.82-.81-.16-.28-.15-.67-.79.96-2.24 1.34-.5.13-1.06.13-.57 0-1.04-.19-.46-.18-.8-.5-.69-.68-.69-1.81 0-1.28 1.09-2.63 1.07-1.33 2.74-2.18 1.78-.9 3.63-.9.83 0 .74.73-2.14 0-3.72 1.15-.7.51-1.09 1.12-.4.61-.4 1.19 0 1.07.91 1.07 1.31 0 2.64-1.63.46-.57 1.08-1.61.61-1.03 1.01-1.69.39-.65.81-1.33l.79-1.31q.94-1.53 1.16-1.83.33-.47.79-.47.53 0 .77.38-1.02 1.61-1.91 3.41-.88 1.8-1.22 2.62-.78 1.88-.78 2.68t.57.8"/><path fill="#0074d9" d="M1022.689 826.287q0 1.11.79 1.11.69 0 1.53-.62.75-.56 1.32-1.41.41-.03.41.34 0 .32-.38.97-.39.65-.75 1.12-.36.48-.8.93-.45.45-.95.82-1.12.79-2.19.79-1.61 0-2.15-1.15-1.02.76-2.15 1.05-.39.1-.87.1t-.95-.17-.8-.49q-.69-.67-.69-1.84 0-1.31.89-2.75.75-1.19 1.9-2.11 1.05-.84 1.7-.84.36 0 .8.56-.91.64-1.57 1.63-.73 1.11-.73 2 0 1.07.9 1.07.89 0 1.4-.3.36-1.45 1.62-2.99 1.26-1.53 2.3-1.92.33-.12.91.31.13.11.21.18-.79.68-1.28 1.84-.42.98-.42 1.77m15.74.41q.54.96 2.44.96 1.19 0 2.24-.58t1.8-1.71q.42-.03.42.34 0 .42-.49 1.21-.5.78-.93 1.26-.43.49-.97.9-.53.41-1.14.71-1.33.65-2.8.65-2.95 0-3.83-1.64-.31-.59-.31-1.35 0-.77.26-1.41.27-.64.73-1.22t1.1-1.07 1.4-.85q1.59-.77 3.25-.77 1.2 0 1.64.76.16.26.16.69t-.22.85q-.21.41-.59.75-.37.34-.86.6-.49.25-1.05.44-.98.33-2.25.48m-.13-.86q1.19-.14 2.04-.66.9-.56.9-1.31 0-.74-.69-.74-.89 0-1.55.85-.63.82-.7 1.86"/><path fill="#0074d9" d="M1053.049 822.667q-.51-.04-1 .02v.32q0 .24.07.7.06.46.16 1.02.26 1.58.26 2.13 0 .56-.08.91 1.4-.35 2.57-1.61.35-.38.63-.8.27-.02.35.1.07.11.07.24t-.21.64q-.22.5-.81 1.26-.6.76-1.49 1.37-2.02 1.38-4.85 1.4-.26.02-.75.02t-1.08-.27q-.6-.28-1.01-.75-.87-.97-.87-2.5 0-.63.96-1.42.27-.22.54-.39.92-1.39 2.64-2.41 1.71-1.02 3.2-1.02.54 0 .74.3.23.31-.04.74m-4.67 4.32q.2.15.46.15.25 0 .49-.19.24-.2.44-.52.2-.33.35-.75.15-.43.27-.89.21-.78.41-1.85-1.57.48-2.77 1.53-.36.33-.63.66.32 1.34.98 1.86m10.73 3.35q-2.96 0-2.96-2.51 0-1.75 2.33-4.86-.23-.08-.43-.13-.19-.06-.31-.1t-.15-.13q-.03-.1-.02-.22.04-.28.13-.44l1.4.23q1.64-2 2.83-2.74.36-.22.51-.22t.27.04q.11.04.23.11.26.14.41.32-1.25 1.23-2.35 2.81 2.13.38 2.6.4-.25 1-.57 1-.8 0-2.63-.44-.92 1.53-.92 2.54 0 1.39 1.88 1.39 2.09 0 3.45-2.03.42-.03.42.34 0 .33-.39.97-.39.65-.78 1.12-.39.48-.9.93-.51.46-1.14.83-1.35.79-2.91.79m7.68.57q-.31-.22-.43-.44t-.12-.54q0-.33.23-.69.22-.36.59-.65.84-.64 1.76-.64t1.34.38.42.99q0 .7-1.05 1.28-.98.54-1.84.54-.58 0-.9-.23m25.84-.9q-1.06-.36-2.95-.36-3.36 0-6.43.93-.19.07-.36.07t-.38-.09q-.2-.09-.4-.36-.4-.53-.4-1.42 0-.76.27-1.07.27-.32.85-.66.59-.33 1.4-.74.8-.41 1.76-.88t1.93-.98q.96-.52 1.87-1.08.9-.56 1.6-1.14 1.54-1.29 1.54-2.43 0-.9-1.12-1.1-.31-.06-.73-.06t-.99.12q-.57.11-1.09.29-.52.19-.97.43-.45.23-.79.48-.71.55-.71 1.04 0 .48.62.81-.23.33-.43.44-.19.11-.32.11t-.44-.07-.59-.21q-.7-.36-.7-.82t.32-.91q.32-.44.86-.85t1.25-.76 1.48-.61q1.65-.57 3.08-.57 1.49 0 2.32.75.72.67.72 1.73 0 2.42-3.8 5.03-1.67 1.16-3.8 2.17.91-.1 1.57-.1.65 0 1.08.02.42.02.86.07.9.09 1.5.29t.83.47q.24.3.24.64 0 .68-.55 1.38m3.94-3.27q0-2.07 1.68-4.53 1.05-1.54 2.51-2.73 2.37-1.93 4.7-1.93 1.49 0 2.33.98.83.98.83 2.73 0 2.05-1.06 4.13-1.13 2.18-2.93 3.52-2 1.48-4.35 1.48-1.86 0-2.78-.96-.93-.96-.93-2.69m3.88-4.47q-.39.76-.61 1.59-.22.82-.22 1.69 0 .86.5 1.35.51.49 1.3.49.8 0 1.47-.27.66-.27 1.28-.74t1.16-1.1q.55-.63.96-1.35.87-1.51.87-2.95 0-1.69-1.08-2.22-.35-.18-.94-.18t-1.29.29q-.69.29-1.32.79-.62.5-1.16 1.17-.53.67-.92 1.44m20.03 7.74q-1.06-.36-2.95-.36-3.36 0-6.43.93-.2.07-.36.07-.17 0-.38-.09t-.4-.36q-.4-.53-.4-1.42 0-.76.27-1.07.26-.32.85-.66.58-.33 1.39-.74t1.77-.88 1.92-.98q.97-.52 1.87-1.08.91-.56 1.6-1.14 1.54-1.29 1.54-2.43 0-.9-1.12-1.1-.31-.06-.73-.06t-.99.12q-.56.11-1.09.29-.52.19-.97.43-.45.23-.78.48-.72.55-.72 1.04 0 .48.62.81-.23.33-.42.44-.2.11-.33.11t-.43-.07q-.31-.07-.6-.21-.69-.36-.69-.82t.32-.91q.32-.44.85-.85.54-.41 1.25-.76t1.48-.61q1.65-.57 3.08-.57 1.5 0 2.32.75.73.67.73 1.73 0 2.42-3.81 5.03-1.67 1.16-3.79 2.17.91-.1 1.56-.1t1.08.02.86.07q.9.09 1.51.29.6.2.82.47.24.3.24.64 0 .68-.54 1.38m16.77-4.35q-.65-.21-2.85-.21h-.4q-.19 0-.4.01-1.34 2.84-1.61 5.18-.46.04-.78.04-.33 0-.75-.03-.43-.02-.89-.19-.99-.36-.99-1.4 0-1.23 1.6-3.33-1.84.24-3.08.64-.26.09-.43.09-.18 0-.39-.04t-.48-.21q-.26-.18-.47-.44-.22-.27-.37-.56-.28-.54-.4-1.12 2.89-2.16 7.86-4.75 2.28-1.18 3.88-1.85.53.11.87.66.1.16.1.4 0 .23-.23.74-.24.51-.62 1.18-.39.67-.88 1.47-.48.81-.99 1.71 3.14.14 3.14 1.07 0 .36-.44.94m-9.83-1.72q.17-.01.59-.04.42-.04 1.02-.08 1.25-.09 2.87-.15.62-.67 1.23-1.34.61-.66 1.16-1.27 1.27-1.4 1.7-2.12-2.03.79-6.07 3.34-1.52.96-2.5 1.66"/></g><path fill="transparent" stroke="transparent" stroke-width="2.65" d="M250 590.99h1500v318.02H250z"/></g></svg>